HIERARCHY
ROOT Hips
{
	OFFSET 0.00000 0.00000 0.00000
	CHANNELS 6 Xposition Yposition Zposition Zrotation Yrotation Xrotation 
	JOINT LHipJoint
	{
		OFFSET 0 0 0
		CHANNELS 3 Zrotation Yrotation Xrotation
		JOINT LeftHip
		{
			OFFSET 1.48416 -1.82041 0.59464
			CHANNELS 3 Zrotation Yrotation Xrotation
			JOINT LeftKnee
			{
				OFFSET 2.43280 -6.68407 0.00000
				CHANNELS 3 Zrotation Yrotation Xrotation
				JOINT LeftAnkle
				{
					OFFSET 2.68325 -7.37216 0.00000
					CHANNELS 3 Zrotation Yrotation Xrotation
					JOINT LeftToe
					{
						OFFSET 0.15365 -0.42214 1.91990
						CHANNELS 3 Zrotation Yrotation Xrotation
						End Site
						{
							OFFSET 0.00000 -0.00000 0.99320
						}
					}
				}
			}
		}
	}
	JOINT RHipJoint
	{
		OFFSET 0 0 0
		CHANNELS 3 Zrotation Yrotation Xrotation
		JOINT RightHip
		{
			OFFSET -1.70852 -1.82040 0.59464
			CHANNELS 3 Zrotation Yrotation Xrotation
			JOINT RightKnee
			{
				OFFSET -2.50396 -6.87957 0.00000
				CHANNELS 3 Zrotation Yrotation Xrotation
				JOINT RightAnkle
				{
					OFFSET -2.67204 -7.34139 0.00000
					CHANNELS 3 Zrotation Yrotation Xrotation
					JOINT RightToe
					{
						OFFSET -0.17346 -0.47657 2.02009
						CHANNELS 3 Zrotation Yrotation Xrotation
						End Site
						{
							OFFSET -0.00000 -0.00000 1.04609
						}
					}
				}
			}
		}
	}
	JOINT lowerback
	{
		OFFSET 0 0 0
		CHANNELS 3 Zrotation Yrotation Xrotation
		JOINT Chest
		{
			OFFSET -0.01022 1.99636 -0.30653
			CHANNELS 3 Zrotation Yrotation Xrotation
			JOINT Chest2
			{
				OFFSET -0.01683 2.01212 0.04808
				CHANNELS 3 Zrotation Yrotation Xrotation
				JOINT lowerneck
				{
					OFFSET 0 0 0
					CHANNELS 3 Zrotation Yrotation Xrotation
					JOINT Neck
					{
						OFFSET -0.03080 1.91178 0.03911
						CHANNELS 3 Zrotation Yrotation Xrotation
						JOINT Head
						{
							OFFSET 0.10605 1.89839 -0.23433
							CHANNELS 3 Zrotation Yrotation Xrotation
							End Site
							{
								OFFSET 0.03474 1.92469 -0.08609
							}
						}
					}
				}
				JOINT LeftCollar
				{
					OFFSET 0 0 0
					CHANNELS 3 Zrotation Yrotation Xrotation
					JOINT LeftShoulder
					{
						OFFSET 3.78977 1.27972 -0.24661
CHANNELS 3 Zrotation Xrotation Yrotation
						JOINT LeftElbow
						{
OFFSET 0 -5.641470 -0.000000
CHANNELS 3 Zrotation Xrotation Yrotation
							JOINT LeftWrist
							{
OFFSET 0 -2.864440 -0.000000
CHANNELS 3 Zrotation Xrotation Yrotation
								JOINT lhand
								{
									OFFSET 0 0 0
CHANNELS 3 Zrotation Xrotation Yrotation
									JOINT LFingers
									{
OFFSET 0 -0.722120 -0.000000
CHANNELS 3 Zrotation Xrotation Yrotation
										End Site
										{
OFFSET 0 -0.582190 -0.000000
										}
									}
								}
								JOINT LThumb
								{
OFFSET 0 0.000000 0.000000
CHANNELS 3 Zrotation Xrotation Yrotation
									End Site
									{
OFFSET 0 -0.591080 0.591080
									}
								}
							}
						}
					}
				}
				JOINT RightCollar
				{
					OFFSET 0 0 0
					CHANNELS 3 Zrotation Yrotation Xrotation
					JOINT RightShoulder
					{
						OFFSET -3.41176 1.18605 -0.57927
CHANNELS 3 Zrotation Xrotation Yrotation
						JOINT RightElbow
						{
OFFSET 0 -5.447290 -0.000000
CHANNELS 3 Zrotation Xrotation Yrotation
							JOINT RightWrist
							{
OFFSET 0 -3.088210 -0.000000
CHANNELS 3 Zrotation Xrotation Yrotation
								JOINT rhand
								{
									OFFSET 0 0 0
CHANNELS 3 Zrotation Xrotation Yrotation
									JOINT RFingers
									{
OFFSET 0 -0.821050 -0.000000
CHANNELS 3 Zrotation Xrotation Yrotation
										End Site
										{
OFFSET 0 -0.661950 -0.000000
										}
									}
								}
								JOINT RThumb
								{
OFFSET 0 0.000000 0.000000
CHANNELS 3 Zrotation Xrotation Yrotation
									End Site
									{
OFFSET 0 -0.672060 0.672060
									}
								}
							}
						}
					}
				}
			}
		}
	}
}
MOTION
Frames: 5
Frame Time: 0.008333333333333333
3.129400 17.690600 0.576100 -68.745100 88.713400 -69.736400 0.000000 0.000000 0.000000 -14.160900 1.963400 3.038500 0.186200 2.778800 7.663500 0.368800 -2.917600 -10.838700 0.122600 -2.257500 -6.217800 0.000000 0.000000 0.000000 20.750900 -0.120900 1.297000 -0.544000 -4.725500 13.127300 -0.692500 4.156600 -14.863700 -0.180700 2.738300 -7.550900 3.552700 -0.419900 5.375300 -1.324600 -0.364400 -1.478900 -3.338800 -0.299500 -4.584500 -4.722300 -5.658200 -3.645500 9.405600 -7.744400 4.190300 3.670400 -3.674500 2.644600 0.000000 0.000000 0.000000 1.745500 1.990200 0.384300 8.482500 -14.331900 1.068400 12.792000 -13.547200 -10.426200 0.000000 0.000000 0.000000 -7.125000 0.000000 0.000000 -12.510000 40.350000 -1.460300 0.000000 0.000000 0.000000 0.701400 4.687300 -1.559200 -10.329500 -17.253300 -1.571300 -0.873000 28.025300 -16.261200 0.000000 0.000000 0.000000 7.125000 0.000000 -0.000000 17.808800 14.230300 13.568900
3.126147 17.678189 0.576095 -69.673464 88.585561 -70.700728 0.000000 0.000000 0.000000 -14.015705 1.722492 2.325727 0.259260 3.275829 9.047657 0.407278 -3.293806 -11.374909 0.128888 -2.313532 -6.373090 0.000000 0.000000 0.000000 20.934479 -0.101292 1.731849 -0.496909 -4.519426 12.542847 -0.683524 3.966056 -14.778913 -0.214364 2.980617 -8.224813 3.647149 -0.437447 5.365742 -1.259531 -0.378830 -1.482991 -3.322928 -0.308531 -4.584918 -4.710479 -5.610975 -3.602954 9.377423 -7.691944 4.355800 3.661894 -3.646674 2.686125 0.000000 0.000000 0.000000 2.219982 1.732181 -1.735894 8.444056 -14.270097 1.058908 12.936674 -14.183872 -10.926081 0.000000 0.000000 0.000000 -7.125000 0.000000 0.000000 -12.499056 40.861146 -1.298554 0.000000 0.000000 0.000000 1.043868 4.537133 0.505779 -10.348345 -17.282663 -1.576885 -1.396064 27.469515 -16.469287 0.000000 0.000000 0.000000 7.125000 0.000000 0.000000 17.457302 14.012402 13.358152
3.125670 17.678182 0.571992 -69.670928 88.505776 -70.722737 0.000000 0.000000 0.000000 -13.949666 1.730884 2.276796 0.268986 3.336184 9.216123 0.414644 -3.382466 -11.474078 0.125554 -2.282548 -6.287166 0.000000 0.000000 0.000000 21.011679 -0.099501 1.823427 -0.488698 -4.482250 12.437586 -0.683371 3.888105 -14.783761 -0.226117 3.059764 -8.445330 3.771883 -0.446784 5.365965 -1.235739 -0.381431 -1.485697 -3.368293 -0.313261 -4.589254 -4.653422 -5.531895 -3.591229 9.396791 -7.599520 4.516399 3.662820 -3.595647 2.728987 0.000000 0.000000 0.000000 2.607269 1.535384 -3.743257 8.371495 -14.153229 1.041106 13.359747 -14.830224 -10.622534 0.000000 0.000000 0.000000 -7.125000 0.000000 0.000000 -12.065169 40.594787 -1.332642 0.000000 0.000000 0.000000 1.286263 4.496104 3.046232 -10.553540 -17.600784 -1.638391 -1.690777 26.615033 -16.582874 0.000000 0.000000 0.000000 7.125000 0.000000 0.000000 17.259883 13.892166 13.237846
3.127410 17.678095 0.565150 -68.537809 88.630074 -69.593726 0.000000 0.000000 0.000000 -14.114496 1.748533 2.366186 0.261027 3.286750 9.078105 0.407708 -3.347426 -11.378415 0.124152 -2.271369 -6.256236 0.000000 0.000000 0.000000 20.829084 -0.161913 1.794734 -0.491781 -4.496378 12.477507 -0.683045 4.052379 -14.767150 -0.153783 2.522964 -6.953479 3.663205 -0.454422 5.348649 -1.231472 -0.399513 -1.507408 -3.300844 -0.319620 -4.602411 -4.612769 -5.510442 -3.598527 9.323147 -7.577768 4.652400 3.630024 -3.583271 2.768269 0.000000 0.000000 0.000000 2.840482 1.465785 -5.413209 8.331613 -14.088932 1.031347 13.534512 -15.204849 -10.463670 0.000000 0.000000 0.000000 -7.125000 0.000000 0.000000 -11.879299 40.450739 -1.354314 0.000000 0.000000 0.000000 1.444338 4.495752 4.913853 -10.671323 -17.782749 -1.674139 -2.415001 25.720337 -16.659061 0.000000 0.000000 0.000000 7.125000 0.000000 0.000000 16.788432 13.788581 12.879831
3.128600 17.677305 0.559899 -70.950489 88.558751 -72.012319 0.000000 0.000000 0.000000 -14.034047 1.716590 2.373771 0.261024 3.286696 9.078044 0.407590 -3.290824 -11.379460 0.138555 -2.398956 -6.609495 0.000000 0.000000 0.000000 20.906061 -0.222818 1.792163 -0.491641 -4.495721 12.475733 -0.680718 3.996914 -14.745215 -0.201853 2.892964 -7.980863 3.747250 -0.492470 5.332793 -1.155811 -0.441774 -1.509365 -3.265442 -0.341884 -4.599283 -4.625842 -5.510159 -3.611261 9.271556 -7.581818 4.769801 3.613910 -3.584549 2.808562 0.000000 0.000000 0.000000 2.938263 1.504538 -7.111194 8.435348 -14.256113 1.056713 13.685716 -15.898612 -10.526033 0.000000 0.000000 0.000000 -7.125000 0.000000 0.000000 -11.762565 40.526143 -1.318280 0.000000 0.000000 0.000000 1.616124 4.450823 6.092625 -10.773743 -17.940603 -1.705601 -2.848506 25.137710 -16.759009 0.000000 0.000000 0.000000 7.125000 0.000000 0.000000 16.502704 13.673286 12.682276
